<svg width="1720" height="276" viewBox="0 0 1720 276" fill="none" xmlns="http://www.w3.org/2000/svg">
<mask id="mask0_2035_538" style="mask-type:alpha" maskUnits="userSpaceOnUse" x="0" y="0" width="1720" height="276">
<path d="M1545.79 257.341H1566.3V98.2069H1545.79V86.3827H1636.02V107.404C1638.52 103.134 1641.49 99.3565 1644.93 96.072C1648.37 92.678 1652.16 89.8314 1656.3 87.5322C1660.52 85.1236 1665.01 83.3171 1669.77 82.1128C1674.62 80.799 1679.62 80.1421 1684.77 80.1421C1690.16 80.1421 1695.01 81.0727 1699.3 82.9339C1703.6 84.7951 1707.27 87.368 1710.32 90.6525C1713.37 93.8275 1715.67 97.6595 1717.23 102.148C1718.88 106.528 1719.7 111.29 1719.7 116.436C1719.7 121.363 1718.8 126.016 1717 130.395C1715.28 134.774 1712.86 138.606 1709.73 141.891C1706.69 145.175 1703.09 147.803 1698.95 149.774C1694.81 151.635 1690.4 152.566 1685.71 152.566C1681.02 152.566 1676.61 151.635 1672.47 149.774C1668.33 147.803 1664.7 145.175 1661.57 141.891C1658.52 138.606 1656.1 134.774 1654.3 130.395C1652.51 126.016 1651.61 121.363 1651.61 116.436C1651.61 113.918 1651.84 111.454 1652.31 109.046C1652.86 106.528 1653.56 104.174 1654.42 101.984C1652.78 103.079 1650.87 104.776 1648.68 107.075C1646.57 109.265 1644.58 112.002 1642.7 115.286C1640.83 118.571 1639.23 122.403 1637.9 126.782C1636.65 131.052 1636.02 135.705 1636.02 140.741V257.341H1658.76V269.166H1545.79V257.341Z" fill="white"/>
<path d="M1377.55 176.05C1377.55 161.379 1379.7 148.131 1384 136.307C1388.3 124.483 1394.23 114.41 1401.81 106.09C1409.47 97.769 1418.49 91.3642 1428.88 86.8753C1439.35 82.3865 1450.68 80.1421 1462.87 80.1421C1472.24 80.1421 1480.72 81.4559 1488.3 84.0835C1495.95 86.7111 1502.71 90.3241 1508.57 94.9224C1514.51 99.4112 1519.59 104.776 1523.8 111.016C1528.1 117.257 1531.62 123.99 1534.35 131.216C1537.16 138.442 1539.23 146.051 1540.56 154.044C1541.89 161.926 1542.55 169.864 1542.55 177.856H1448.57C1448.57 194.607 1449.08 208.238 1450.09 218.748C1451.19 229.259 1452.87 237.525 1455.13 243.546C1457.48 249.459 1460.45 253.509 1464.04 255.699C1467.71 257.889 1472.12 258.984 1477.28 258.984C1483.84 258.984 1490.02 257.834 1495.8 255.535C1501.58 253.236 1506.73 250.006 1511.27 245.846C1515.88 241.576 1519.7 236.485 1522.75 230.573C1525.8 224.551 1527.87 217.818 1528.96 210.373H1539.98C1539.2 220.555 1536.97 229.697 1533.3 237.799C1529.62 245.791 1524.74 252.579 1518.65 258.162C1512.63 263.746 1505.52 268.016 1497.32 270.972C1489.2 273.928 1480.29 275.406 1470.6 275.406C1455.37 275.406 1441.93 273.216 1430.29 268.837C1418.73 264.348 1409.04 257.889 1401.23 249.459C1393.41 240.919 1387.52 230.518 1383.53 218.256C1379.55 205.884 1377.55 191.815 1377.55 176.05ZM1481.5 161.269C1481.27 147.584 1480.8 136.198 1480.09 127.111C1479.39 118.023 1478.38 110.743 1477.05 105.269C1475.72 99.7944 1474.08 95.9625 1472.12 93.7728C1470.17 91.4736 1467.83 90.3241 1465.09 90.3241C1462.36 90.3241 1459.98 91.4736 1457.95 93.7728C1455.99 95.9625 1454.35 99.7944 1453.02 105.269C1451.7 110.743 1450.68 118.023 1449.98 127.111C1449.27 136.198 1448.84 147.584 1448.69 161.269H1481.5Z" fill="white"/>
<path d="M1176.85 177.856C1176.85 164.828 1178.34 152.402 1181.3 140.577C1184.35 128.753 1188.92 118.407 1195.02 109.539C1201.19 100.561 1208.92 93.4446 1218.22 88.1894C1227.52 82.8247 1238.45 80.1423 1251.03 80.1423C1259.62 80.1423 1266.89 81.6751 1272.83 84.7406C1278.77 87.6967 1283.69 91.4739 1287.59 96.0722V32.6812H1267.2V20.8569H1357.44V257.342H1377.95V269.166H1287.59V256.028C1284.39 262.049 1279.9 266.757 1274.12 270.151C1268.34 273.655 1260.64 275.406 1251.03 275.406C1238.45 275.406 1227.52 272.779 1218.22 267.524C1208.92 262.268 1201.19 255.152 1195.02 246.174C1188.92 237.197 1184.35 226.85 1181.3 215.136C1178.34 203.311 1176.85 190.885 1176.85 177.856ZM1268.84 256.52C1271.73 256.52 1274.39 255.699 1276.81 254.057C1279.23 252.305 1281.3 249.568 1283.02 245.846C1284.82 242.014 1286.23 237.142 1287.24 231.23C1288.26 225.318 1288.77 218.092 1288.77 209.552V137.95C1288.77 133.68 1288.34 129.191 1287.48 124.483C1286.62 119.775 1285.29 115.451 1283.49 111.509C1281.7 107.568 1279.43 104.338 1276.7 101.82C1274.04 99.1925 1270.91 97.8787 1267.32 97.8787C1264.04 97.8787 1261.23 99.302 1258.88 102.149C1256.54 104.886 1254.62 109.429 1253.14 115.779C1251.66 122.129 1250.56 130.395 1249.86 140.577C1249.16 150.65 1248.8 163.076 1248.8 177.856C1248.8 192.746 1249.12 205.227 1249.74 215.3C1250.45 225.372 1251.58 233.474 1253.14 239.605C1254.7 245.627 1256.77 249.951 1259.35 252.579C1261.93 255.207 1265.09 256.52 1268.84 256.52Z" fill="white"/>
<path d="M965.492 257.341H986V98.2069H965.492V86.3827H1055.73V107.404C1058.23 103.134 1061.23 99.3017 1064.75 95.9077C1068.34 92.5137 1072.29 89.6672 1076.59 87.368C1080.88 84.9594 1085.45 83.1529 1090.3 81.9486C1095.22 80.7442 1100.26 80.1421 1105.41 80.1421C1116.04 80.1421 1124.79 82.1128 1131.66 86.0542C1138.62 89.8861 1144.09 95.4151 1148.07 102.641C1152.05 109.757 1154.83 118.461 1156.39 128.753C1157.95 138.935 1158.73 150.321 1158.73 162.912V257.341H1179.24V269.166H1077.29V257.341H1089.01V162.912C1089.01 151.635 1088.77 142.438 1088.3 135.322C1087.84 128.096 1087.02 122.458 1085.84 118.407C1084.67 114.246 1083.11 111.4 1081.16 109.867C1079.2 108.225 1076.74 107.404 1073.77 107.404C1070.8 107.404 1068.19 108.279 1065.92 110.031C1063.66 111.783 1061.74 114.246 1060.18 117.421C1058.7 120.596 1057.56 124.373 1056.78 128.753C1056.08 133.132 1055.73 137.895 1055.73 143.04V257.341H1067.33V269.166H965.492V257.341Z" fill="white"/>
<path d="M910.102 69.7958C905.57 69.7958 901.195 69.1937 896.977 67.9893C892.758 66.6755 889.047 64.6501 885.844 61.913C882.641 59.0664 880.062 55.4535 878.109 51.0741C876.156 46.6948 875.18 41.3301 875.18 34.98C875.18 28.63 876.156 23.2653 878.109 18.8859C880.062 14.3971 882.641 10.7841 885.844 8.04705C889.047 5.20047 892.758 3.17503 896.977 1.97071C901.195 0.656902 905.57 0 910.102 0C914.555 0 918.891 0.656902 923.109 1.97071C927.328 3.17503 931.039 5.20047 934.242 8.04705C937.445 10.7841 940.023 14.3424 941.977 18.7217C943.93 23.101 944.906 28.4657 944.906 34.8158C944.906 41.1658 943.93 46.5853 941.977 51.0741C940.023 55.4535 937.445 59.0664 934.242 61.913C931.039 64.6501 927.328 66.6755 923.109 67.9893C918.891 69.1937 914.555 69.7958 910.102 69.7958ZM855.961 257.341H876.469V98.2068H855.961V86.3826H946.195V257.341H966.703V269.165H855.961V257.341Z" fill="white"/>
<path d="M733.773 257.341H754.398V113.808H733.773V101.984H754.398V89.0103C754.398 63.0627 759.633 44.1768 770.102 32.3526C780.57 20.5283 796.039 14.6162 816.508 14.6162C819.477 14.6162 822.914 14.8899 826.82 15.4373C830.727 15.9848 834.711 16.9154 838.773 18.2292C842.914 19.543 846.977 21.2947 850.961 23.4844C855.023 25.6741 858.617 28.4111 861.742 31.6957C864.867 34.8707 867.406 38.7026 869.359 43.1914C871.312 47.5708 872.289 52.607 872.289 58.3002C872.289 62.57 871.586 66.6209 870.18 70.4529C868.773 74.1753 866.781 77.4598 864.203 80.3064C861.703 83.0435 858.734 85.2332 855.297 86.8754C851.859 88.5177 848.148 89.3388 844.164 89.3388C840.102 89.3388 836.352 88.5177 832.914 86.8754C829.477 85.2332 826.508 83.0435 824.008 80.3064C821.508 77.4598 819.555 74.1753 818.148 70.4529C816.742 66.6209 816.039 62.57 816.039 58.3002C816.039 54.5777 816.586 51.0743 817.68 47.7898C818.773 44.3958 820.297 41.385 822.25 38.7574C824.203 36.0203 826.547 33.7211 829.281 31.8599C832.016 29.9987 835.023 28.6849 838.305 27.9185C834.555 26.6047 830.844 25.9478 827.172 25.9478C824.125 25.9478 821.234 26.5499 818.5 27.7542C815.844 28.8491 813.5 30.7103 811.469 33.3379C809.516 35.856 807.953 39.25 806.781 43.5199C805.609 47.6803 805.023 52.826 805.023 58.9571C805.023 63.008 805.492 67.0041 806.43 70.9455C807.367 74.8869 808.539 78.7189 809.945 82.4413C811.43 86.0543 813.031 89.5578 814.75 92.9517C816.469 96.2363 818.109 99.2471 819.672 101.984H847.094V113.808H824.125V257.341H844.516V269.166H733.773V257.341Z" fill="white"/>
<path d="M524.641 257.342H545.148V32.6812H524.641V20.8569H614.875V107.404C617.375 103.134 620.383 99.302 623.898 95.908C627.492 92.514 631.438 89.6674 635.734 87.3682C640.031 84.9596 644.602 83.1531 649.445 81.9488C654.367 80.7445 659.406 80.1423 664.562 80.1423C675.188 80.1423 683.938 82.113 690.812 86.0544C697.766 89.8864 703.234 95.4153 707.219 102.641C711.203 109.758 713.977 118.462 715.539 128.753C717.102 138.935 717.883 150.321 717.883 162.912V257.342H738.391V269.166H636.438V257.342H648.156V162.912C648.156 151.635 647.922 142.439 647.453 135.322C646.984 128.096 646.164 122.458 644.992 118.407C643.82 114.246 642.258 111.4 640.305 109.867C638.352 108.225 635.891 107.404 632.922 107.404C629.953 107.404 627.336 108.28 625.07 110.031C622.805 111.783 620.891 114.246 619.328 117.421C617.844 120.597 616.711 124.374 615.93 128.753C615.227 133.132 614.875 137.895 614.875 143.041V257.342H626.477V269.166H524.641V257.342Z" fill="white"/>
<path d="M410.188 98.2071H389.68V86.3829H410.188C418.078 86.3829 425.148 84.5217 431.398 80.7992C437.727 76.9673 443.078 72.0405 447.453 66.0189C451.906 59.8878 455.305 53.0451 457.648 45.4907C459.992 37.9364 461.164 30.382 461.164 22.8276H479.914V86.3829H517.648V98.2071H479.914V199.37C479.914 211.085 480.344 220.665 481.203 228.109C482.141 235.445 483.43 241.193 485.07 245.353C486.789 249.513 488.781 252.36 491.047 253.893C493.391 255.316 495.969 256.028 498.781 256.028C501.516 256.028 504.172 255.207 506.75 253.564C509.328 251.813 511.594 249.076 513.547 245.353C515.5 241.521 517.063 236.594 518.234 230.573C519.406 224.442 519.992 216.942 519.992 208.074C519.992 205.994 519.953 203.859 519.875 201.669C519.797 199.37 519.68 197.016 519.523 194.607H529.367C529.602 200.082 529.719 205.063 529.719 209.552C529.719 223.237 528.352 234.405 525.617 243.054C522.961 251.594 519.133 258.272 514.133 263.089C509.133 267.907 503.039 271.191 495.852 272.943C488.742 274.695 480.734 275.571 471.828 275.571C461.828 275.571 453 274.202 445.344 271.465C437.688 268.728 431.242 264.403 426.008 258.491C420.773 252.47 416.828 244.751 414.172 235.335C411.516 225.92 410.188 214.479 410.188 201.012V98.2071Z" fill="white"/>
<path d="M203.281 226.139C203.281 217.708 204.414 210.482 206.68 204.461C208.945 198.33 212.148 193.184 216.289 189.024C220.43 184.754 225.391 181.36 231.172 178.842C236.953 176.214 243.359 174.189 250.391 172.765C257.5 171.342 265.117 170.411 273.242 169.973C281.367 169.426 289.805 169.152 298.555 169.152V159.956C298.555 145.942 297.852 134.72 296.445 126.289C295.117 117.859 293.047 111.4 290.234 106.911C287.5 102.422 284.102 99.5207 280.039 98.2069C275.977 96.7836 271.25 96.072 265.859 96.072C262.969 96.072 259.883 96.4004 256.602 97.0573C253.398 97.7142 250.547 98.4806 248.047 99.3565C251.641 99.9039 254.961 101.163 258.008 103.134C261.055 105.104 263.672 107.568 265.859 110.524C268.047 113.48 269.727 116.764 270.898 120.377C272.148 123.99 272.773 127.658 272.773 131.38C272.773 135.979 271.953 140.303 270.313 144.354C268.672 148.405 266.406 151.963 263.516 155.029C260.625 157.985 257.266 160.339 253.438 162.091C249.609 163.842 245.508 164.718 241.133 164.718C236.758 164.718 232.656 163.842 228.828 162.091C225.078 160.339 221.758 157.985 218.867 155.029C216.055 151.963 213.828 148.405 212.188 144.354C210.547 140.303 209.727 135.979 209.727 131.38C209.727 125.249 210.898 119.72 213.242 114.794C215.664 109.867 218.906 105.542 222.969 101.82C227.109 97.9879 231.953 94.7034 237.5 91.9663C243.125 89.2292 249.141 86.9848 255.547 85.2331C261.953 83.4813 268.594 82.2223 275.469 81.4559C282.422 80.58 289.336 80.1421 296.211 80.1421C308.398 80.1421 318.984 81.3464 327.969 83.755C337.031 86.0542 344.531 90.2146 350.469 96.2362C356.484 102.148 360.977 110.305 363.945 120.706C366.914 130.997 368.398 144.081 368.398 159.956V228.766C368.398 236.977 368.984 243.327 370.156 247.816C371.406 252.196 373.672 254.385 376.953 254.385C378.594 254.385 379.922 253.674 380.938 252.25C382.031 250.718 382.852 248.747 383.398 246.338C384.023 243.93 384.453 241.138 384.688 237.963C384.922 234.788 385.039 231.558 385.039 228.273V212.015H395.469V228.273C395.469 237.032 394.648 244.422 393.008 250.444C391.445 256.465 388.672 261.337 384.688 265.06C380.781 268.782 375.508 271.41 368.867 272.943C362.305 274.585 354.023 275.406 344.023 275.406C338.945 275.406 334.18 275.023 329.727 274.257C325.352 273.49 321.328 272.176 317.656 270.315C314.063 268.454 310.938 265.991 308.281 262.925C305.625 259.859 303.516 256.028 301.953 251.429C299.609 256.465 296.484 260.571 292.578 263.746C288.672 266.812 284.453 269.22 279.922 270.972C275.391 272.724 270.82 273.873 266.211 274.421C261.602 275.078 257.383 275.406 253.555 275.406C244.414 275.406 236.641 274.038 230.234 271.301C223.828 268.673 218.633 265.115 214.648 260.626C210.664 256.137 207.773 250.937 205.977 245.024C204.18 239.003 203.281 232.708 203.281 226.139ZM270.898 224.332C270.898 232.434 271.953 239.003 274.063 244.039C276.172 248.966 279.648 251.429 284.492 251.429C288.555 251.429 291.914 249.404 294.57 245.353C297.227 241.193 298.555 235.664 298.555 228.766V184.261C292.93 184.261 288.32 184.973 284.727 186.396C281.133 187.819 278.281 190.118 276.172 193.293C274.141 196.359 272.734 200.465 271.953 205.61C271.25 210.756 270.898 216.997 270.898 224.332Z" fill="white"/>
<path d="M0 256.192H20.5078V49.2676H0V36.458H135.117C146.602 36.458 156.523 38.4287 164.883 42.3701C173.242 46.2021 180.156 51.512 185.625 58.3C191.094 65.088 195.117 73.1898 197.695 82.6054C200.352 91.9115 201.68 102.039 201.68 112.987C201.68 124.045 200.156 134.172 197.109 143.369C194.141 152.456 189.727 160.284 183.867 166.853C178.086 173.313 170.898 178.349 162.305 181.962C153.789 185.465 143.984 187.217 132.891 187.217H101.367V256.192H121.758V269.165H0V256.192ZM101.367 175.393C105.898 175.393 109.766 173.969 112.969 171.123C116.172 168.167 118.75 164.061 120.703 158.806C122.734 153.551 124.18 147.255 125.039 139.92C125.977 132.585 126.445 124.428 126.445 115.45C126.445 103.955 125.977 93.9917 125.039 85.5614C124.102 77.0217 122.617 70.0147 120.586 64.5406C118.633 59.0664 116.055 55.0155 112.852 52.3879C109.727 49.6508 105.898 48.2822 101.367 48.2822V175.393Z" fill="white"/>
</mask>
<g mask="url(#mask0_2035_538)">
<rect x="-46" y="-19" width="1789" height="324" fill="url(#paint0_linear_2035_538)"/>
</g>
<defs>
<linearGradient id="paint0_linear_2035_538" x1="848.5" y1="-19" x2="849" y2="275" gradientUnits="userSpaceOnUse">
<stop offset="0.5" stop-color="white"/>
<stop offset="0.793269" stop-color="white" stop-opacity="0.25"/>
<stop offset="1" stop-color="white" stop-opacity="0"/>
</linearGradient>
</defs>
</svg>
