<svg width="175" height="175" viewBox="0 0 175 175" fill="none" xmlns="http://www.w3.org/2000/svg">
<g opacity="0.2">
<mask id="path-1-inside-1_1948_20964" fill="white">
<path d="M175 87.5C175 135.825 135.825 175 87.5 175C39.1751 175 0 135.825 0 87.5C0 39.1751 39.1751 0 87.5 0C135.825 0 175 39.1751 175 87.5ZM11.375 87.5C11.375 129.543 45.4573 163.625 87.5 163.625C129.543 163.625 163.625 129.543 163.625 87.5C163.625 45.4573 129.543 11.375 87.5 11.375C45.4573 11.375 11.375 45.4573 11.375 87.5Z"/>
</mask>
<path d="M175 87.5C175 135.825 135.825 175 87.5 175C39.1751 175 0 135.825 0 87.5C0 39.1751 39.1751 0 87.5 0C135.825 0 175 39.1751 175 87.5ZM11.375 87.5C11.375 129.543 45.4573 163.625 87.5 163.625C129.543 163.625 163.625 129.543 163.625 87.5C163.625 45.4573 129.543 11.375 87.5 11.375C45.4573 11.375 11.375 45.4573 11.375 87.5Z" stroke="url(#paint0_linear_1948_20964)" stroke-width="21.5385" stroke-linecap="round" mask="url(#path-1-inside-1_1948_20964)"/>
</g>
<mask id="path-2-inside-2_1948_20964" fill="white">
<path d="M167.731 71.4902C170.811 70.8755 173.826 72.8738 174.239 75.9876C176.965 96.519 172.322 117.425 161.028 134.933C148.703 154.038 129.426 167.596 107.278 172.736C85.1299 177.875 61.8514 174.191 42.3724 162.465C22.8933 150.739 8.74338 131.891 2.91938 109.914C-2.90462 87.936 0.0546806 64.5544 11.1705 44.7208C22.2864 24.8871 40.6858 10.1591 62.4721 3.65577C84.2584 -2.84753 107.721 -0.615344 127.89 9.87959C146.372 19.4966 160.758 35.3598 168.558 54.5467C169.741 57.4566 168.111 60.6857 165.13 61.6771V61.6771C162.15 62.6686 158.95 61.0456 157.739 58.1473C150.892 41.7615 138.498 28.2226 122.639 19.9702C105.092 10.8397 84.6798 8.89764 65.7257 14.5555C46.7717 20.2134 30.7642 33.0268 21.0934 50.2821C11.4226 67.5373 8.84798 87.8793 13.9149 107C18.9817 126.12 31.2922 142.518 48.239 152.72C65.1858 162.921 85.438 166.126 104.707 161.655C123.975 157.184 140.747 145.388 151.47 128.766C161.161 113.743 165.223 95.8435 163.057 78.2173C162.674 75.0997 164.65 72.1049 167.731 71.4902V71.4902Z"/>
</mask>
<path d="M167.731 71.4902C170.811 70.8755 173.826 72.8738 174.239 75.9876C176.965 96.519 172.322 117.425 161.028 134.933C148.703 154.038 129.426 167.596 107.278 172.736C85.1299 177.875 61.8514 174.191 42.3724 162.465C22.8933 150.739 8.74338 131.891 2.91938 109.914C-2.90462 87.936 0.0546806 64.5544 11.1705 44.7208C22.2864 24.8871 40.6858 10.1591 62.4721 3.65577C84.2584 -2.84753 107.721 -0.615344 127.89 9.87959C146.372 19.4966 160.758 35.3598 168.558 54.5467C169.741 57.4566 168.111 60.6857 165.13 61.6771V61.6771C162.15 62.6686 158.95 61.0456 157.739 58.1473C150.892 41.7615 138.498 28.2226 122.639 19.9702C105.092 10.8397 84.6798 8.89764 65.7257 14.5555C46.7717 20.2134 30.7642 33.0268 21.0934 50.2821C11.4226 67.5373 8.84798 87.8793 13.9149 107C18.9817 126.12 31.2922 142.518 48.239 152.72C65.1858 162.921 85.438 166.126 104.707 161.655C123.975 157.184 140.747 145.388 151.47 128.766C161.161 113.743 165.223 95.8435 163.057 78.2173C162.674 75.0997 164.65 72.1049 167.731 71.4902V71.4902Z" stroke="url(#paint1_linear_1948_20964)" stroke-width="21.5385" stroke-linecap="round" mask="url(#path-2-inside-2_1948_20964)"/>
<path d="M67.4358 76.6797H78.5296C80.6259 76.6797 82.4358 77.0833 83.9593 77.8906C85.4827 78.6979 86.6415 79.8242 87.4358 81.2695C88.2431 82.7018 88.6468 84.349 88.6468 86.2109C88.6468 88.099 88.2366 89.7656 87.4163 91.2109C86.609 92.6432 85.4306 93.7565 83.8811 94.5508C82.3447 95.3451 80.5087 95.7422 78.3733 95.7422H73.2952V104.961H67.4358V76.6797ZM77.4358 91.0156C79.1285 91.0156 80.4111 90.5859 81.2835 89.7266C82.1689 88.8542 82.6051 87.6823 82.5921 86.2109C82.6051 84.7656 82.1689 83.6198 81.2835 82.7734C80.4111 81.9271 79.1285 81.4974 77.4358 81.4844H73.2952V91.0156H77.4358ZM103.55 90.0391C103.42 89.2969 103.049 88.7044 102.437 88.2617C101.825 87.819 101.037 87.5911 100.073 87.5781C99.1358 87.5911 98.3546 87.7995 97.7296 88.2031C97.1046 88.5938 96.7921 89.1081 96.7921 89.7461C96.7921 90.2539 97.0004 90.6901 97.4171 91.0547C97.8468 91.4062 98.5499 91.6797 99.5264 91.875L103.316 92.6562C105.386 93.0859 106.922 93.7695 107.925 94.707C108.927 95.6445 109.435 96.875 109.448 98.3984C109.448 99.7786 109.051 100.996 108.257 102.051C107.476 103.105 106.375 103.926 104.956 104.512C103.537 105.098 101.896 105.391 100.034 105.391C98.1462 105.391 96.5121 105.124 95.1319 104.59C93.7647 104.043 92.684 103.268 91.8897 102.266C91.1085 101.25 90.6332 100.052 90.4639 98.6719H96.2843C96.4145 99.4922 96.7986 100.117 97.4366 100.547C98.0876 100.977 98.9535 101.198 100.034 101.211C101.102 101.198 101.955 100.996 102.593 100.605C103.231 100.202 103.55 99.6615 103.55 98.9844C103.55 98.4375 103.316 97.9883 102.847 97.6367C102.378 97.2852 101.649 97.0052 100.659 96.7969L97.1436 96.0938C95.1254 95.6901 93.602 94.9805 92.5733 93.9648C91.5447 92.9492 91.0369 91.6536 91.0499 90.0781C91.0499 88.737 91.4145 87.5716 92.1436 86.582C92.8728 85.5794 93.908 84.8112 95.2491 84.2773C96.6033 83.7435 98.1853 83.4766 99.9952 83.4766C101.753 83.4766 103.289 83.7435 104.605 84.2773C105.92 84.8112 106.948 85.5729 107.691 86.5625C108.446 87.5391 108.875 88.6979 108.98 90.0391H103.55Z" fill="#0185CB"/>
<defs>
<linearGradient id="paint0_linear_1948_20964" x1="151.667" y1="19.3229" x2="104.628" y2="179.033" gradientUnits="userSpaceOnUse">
<stop stop-color="#0098EF"/>
<stop offset="0.968018" stop-color="#BCEBFF"/>
</linearGradient>
<linearGradient id="paint1_linear_1948_20964" x1="151.667" y1="19.3229" x2="104.628" y2="179.033" gradientUnits="userSpaceOnUse">
<stop stop-color="#27B0FF"/>
<stop offset="0.968018" stop-color="#3292BC"/>
</linearGradient>
</defs>
</svg>
