<svg width="175" height="175" viewBox="0 0 175 175" fill="none" xmlns="http://www.w3.org/2000/svg">
<g opacity="0.2">
<mask id="path-1-inside-1_1948_21000" fill="white">
<path d="M175 87.5C175 135.825 135.825 175 87.5 175C39.1751 175 0 135.825 0 87.5C0 39.1751 39.1751 0 87.5 0C135.825 0 175 39.1751 175 87.5ZM11.375 87.5C11.375 129.543 45.4573 163.625 87.5 163.625C129.543 163.625 163.625 129.543 163.625 87.5C163.625 45.4573 129.543 11.375 87.5 11.375C45.4573 11.375 11.375 45.4573 11.375 87.5Z"/>
</mask>
<path d="M175 87.5C175 135.825 135.825 175 87.5 175C39.1751 175 0 135.825 0 87.5C0 39.1751 39.1751 0 87.5 0C135.825 0 175 39.1751 175 87.5ZM11.375 87.5C11.375 129.543 45.4573 163.625 87.5 163.625C129.543 163.625 163.625 129.543 163.625 87.5C163.625 45.4573 129.543 11.375 87.5 11.375C45.4573 11.375 11.375 45.4573 11.375 87.5Z" stroke="url(#paint0_linear_1948_21000)" stroke-width="21.5385" stroke-linecap="round" mask="url(#path-1-inside-1_1948_21000)"/>
</g>
<mask id="path-2-inside-2_1948_21000" fill="white">
<path d="M169.312 87.5C172.454 87.5 175.019 90.0493 174.815 93.1838C173.569 112.336 166.052 130.607 153.342 145.128C139.381 161.08 120.103 171.421 99.0906 174.229C78.0786 177.037 56.7617 172.121 39.1011 160.396C21.4405 148.67 8.63733 130.932 3.07067 110.477C-2.49598 90.0221 -0.447503 68.2419 8.83545 49.1837C18.1184 30.1255 34.0045 15.0854 53.5417 6.85829C73.0789 -1.36884 94.9385 -2.2235 115.058 4.45313C133.374 10.5309 149.114 22.4734 159.893 38.3525C161.658 40.9513 160.738 44.4492 158.03 46.041V46.041C155.322 47.6328 151.853 46.7134 150.064 44.1318C140.699 30.6211 127.175 20.4588 111.476 15.2492C93.9715 9.44056 74.9537 10.1841 57.9563 17.3417C40.9589 24.4993 27.138 37.5842 19.0618 54.1648C10.9857 70.7454 9.20349 89.6942 14.0465 107.49C18.8895 125.286 30.0283 140.718 45.393 150.919C60.7577 161.121 79.3034 165.397 97.5838 162.954C115.864 160.511 132.636 151.515 144.783 137.637C155.677 125.19 162.186 109.576 163.413 93.1826C163.647 90.0503 166.171 87.5 169.312 87.5V87.5Z"/>
</mask>
<path d="M169.312 87.5C172.454 87.5 175.019 90.0493 174.815 93.1838C173.569 112.336 166.052 130.607 153.342 145.128C139.381 161.08 120.103 171.421 99.0906 174.229C78.0786 177.037 56.7617 172.121 39.1011 160.396C21.4405 148.67 8.63733 130.932 3.07067 110.477C-2.49598 90.0221 -0.447503 68.2419 8.83545 49.1837C18.1184 30.1255 34.0045 15.0854 53.5417 6.85829C73.0789 -1.36884 94.9385 -2.2235 115.058 4.45313C133.374 10.5309 149.114 22.4734 159.893 38.3525C161.658 40.9513 160.738 44.4492 158.03 46.041V46.041C155.322 47.6328 151.853 46.7134 150.064 44.1318C140.699 30.6211 127.175 20.4588 111.476 15.2492C93.9715 9.44056 74.9537 10.1841 57.9563 17.3417C40.9589 24.4993 27.138 37.5842 19.0618 54.1648C10.9857 70.7454 9.20349 89.6942 14.0465 107.49C18.8895 125.286 30.0283 140.718 45.393 150.919C60.7577 161.121 79.3034 165.397 97.5838 162.954C115.864 160.511 132.636 151.515 144.783 137.637C155.677 125.19 162.186 109.576 163.413 93.1826C163.647 90.0503 166.171 87.5 169.312 87.5V87.5Z" stroke="url(#paint1_linear_1948_21000)" stroke-width="21.5385" stroke-linecap="round" mask="url(#path-2-inside-2_1948_21000)"/>
<path d="M73.9491 86.5234C73.7147 84.974 73.0442 83.75 71.9374 82.8516C70.8306 81.9531 69.4439 81.4974 67.7772 81.4844C66.3059 81.4974 65.0168 81.8685 63.91 82.5977C62.8163 83.3268 61.9699 84.3945 61.371 85.8008C60.772 87.194 60.4725 88.8672 60.4725 90.8203C60.4725 92.8125 60.772 94.5052 61.371 95.8984C61.983 97.2917 62.8293 98.3464 63.91 99.0625C65.0038 99.7786 66.2798 100.143 67.7382 100.156C69.3658 100.143 70.7395 99.7135 71.8593 98.8672C72.979 98.0078 73.6757 96.8229 73.9491 95.3125L79.8866 95.3516C79.6652 97.1354 79.0337 98.7891 77.9921 100.312C76.9504 101.836 75.5442 103.06 73.7733 103.984C72.0025 104.896 69.9647 105.352 67.66 105.352C65.121 105.352 62.8554 104.779 60.8632 103.633C58.884 102.474 57.328 100.801 56.1952 98.6133C55.0624 96.4128 54.496 93.8151 54.496 90.8203C54.496 87.8125 55.0624 85.2148 56.1952 83.0273C57.341 80.8398 58.91 79.1732 60.9022 78.0273C62.8944 76.8685 65.147 76.2891 67.66 76.2891C69.8345 76.2891 71.8007 76.6927 73.5585 77.5C75.3163 78.3073 76.7421 79.4792 77.8358 81.0156C78.9426 82.5521 79.6262 84.388 79.8866 86.5234H73.9491ZM95.1804 90.0391C95.0501 89.2969 94.679 88.7044 94.0671 88.2617C93.4551 87.819 92.6673 87.5911 91.7038 87.5781C90.7663 87.5911 89.985 87.7995 89.36 88.2031C88.735 88.5938 88.4225 89.1081 88.4225 89.7461C88.4225 90.2539 88.6309 90.6901 89.0475 91.0547C89.4772 91.4062 90.1804 91.6797 91.1569 91.875L94.946 92.6562C97.0163 93.0859 98.5527 93.7695 99.5554 94.707C100.558 95.6445 101.066 96.875 101.079 98.3984C101.079 99.7786 100.682 100.996 99.8874 102.051C99.1061 103.105 98.0059 103.926 96.5866 104.512C95.1673 105.098 93.5267 105.391 91.6647 105.391C89.7767 105.391 88.1426 105.124 86.7624 104.59C85.3952 104.043 84.3145 103.268 83.5202 102.266C82.7389 101.25 82.2637 100.052 82.0944 98.6719H87.9147C88.0449 99.4922 88.429 100.117 89.0671 100.547C89.7181 100.977 90.584 101.198 91.6647 101.211C92.7324 101.198 93.5853 100.996 94.2233 100.605C94.8613 100.202 95.1804 99.6615 95.1804 98.9844C95.1804 98.4375 94.946 97.9883 94.4772 97.6367C94.0085 97.2852 93.2793 97.0052 92.2897 96.7969L88.7741 96.0938C86.7559 95.6901 85.2324 94.9805 84.2038 93.9648C83.1751 92.9492 82.6673 91.6536 82.6804 90.0781C82.6804 88.737 83.0449 87.5716 83.7741 86.582C84.5033 85.5794 85.5384 84.8112 86.8796 84.2773C88.2337 83.7435 89.8158 83.4766 91.6257 83.4766C93.3835 83.4766 94.9199 83.7435 96.235 84.2773C97.5501 84.8112 98.5788 85.5729 99.321 86.5625C100.076 87.5391 100.506 88.6979 100.61 90.0391H95.1804ZM115.943 90.0391C115.813 89.2969 115.442 88.7044 114.83 88.2617C114.218 87.819 113.43 87.5911 112.466 87.5781C111.529 87.5911 110.748 87.7995 110.123 88.2031C109.498 88.5938 109.185 89.1081 109.185 89.7461C109.185 90.2539 109.393 90.6901 109.81 91.0547C110.24 91.4062 110.943 91.6797 111.919 91.875L115.708 92.6562C117.779 93.0859 119.315 93.7695 120.318 94.707C121.32 95.6445 121.828 96.875 121.841 98.3984C121.841 99.7786 121.444 100.996 120.65 102.051C119.869 103.105 118.768 103.926 117.349 104.512C115.93 105.098 114.289 105.391 112.427 105.391C110.539 105.391 108.905 105.124 107.525 104.59C106.158 104.043 105.077 103.268 104.283 102.266C103.501 101.25 103.026 100.052 102.857 98.6719H108.677C108.807 99.4922 109.192 100.117 109.83 100.547C110.481 100.977 111.347 101.198 112.427 101.211C113.495 101.198 114.348 100.996 114.986 100.605C115.624 100.202 115.943 99.6615 115.943 98.9844C115.943 98.4375 115.708 97.9883 115.24 97.6367C114.771 97.2852 114.042 97.0052 113.052 96.7969L109.537 96.0938C107.518 95.6901 105.995 94.9805 104.966 93.9648C103.938 92.9492 103.43 91.6536 103.443 90.0781C103.443 88.737 103.807 87.5716 104.537 86.582C105.266 85.5794 106.301 84.8112 107.642 84.2773C108.996 83.7435 110.578 83.4766 112.388 83.4766C114.146 83.4766 115.682 83.7435 116.998 84.2773C118.313 84.8112 119.341 85.5729 120.083 86.5625C120.839 87.5391 121.268 88.6979 121.373 90.0391H115.943Z" fill="#059F7B"/>
<defs>
<linearGradient id="paint0_linear_1948_21000" x1="151.667" y1="19.3229" x2="104.628" y2="179.033" gradientUnits="userSpaceOnUse">
<stop offset="0.968018" stop-color="#059F7B"/>
</linearGradient>
<linearGradient id="paint1_linear_1948_21000" x1="151.667" y1="19.3229" x2="104.628" y2="179.033" gradientUnits="userSpaceOnUse">
<stop stop-color="#059F7B"/>
<stop offset="0.968018" stop-color="#319AE4"/>
</linearGradient>
</defs>
</svg>
