<svg width="175" height="175" viewBox="0 0 175 175" fill="none" xmlns="http://www.w3.org/2000/svg">
<g opacity="0.2">
<mask id="path-1-inside-1_1948_20970" fill="white">
<path d="M175 87.5C175 135.825 135.825 175 87.5 175C39.1751 175 0 135.825 0 87.5C0 39.1751 39.1751 0 87.5 0C135.825 0 175 39.1751 175 87.5ZM11.375 87.5C11.375 129.543 45.4573 163.625 87.5 163.625C129.543 163.625 163.625 129.543 163.625 87.5C163.625 45.4573 129.543 11.375 87.5 11.375C45.4573 11.375 11.375 45.4573 11.375 87.5Z"/>
</mask>
<path d="M175 87.5C175 135.825 135.825 175 87.5 175C39.1751 175 0 135.825 0 87.5C0 39.1751 39.1751 0 87.5 0C135.825 0 175 39.1751 175 87.5ZM11.375 87.5C11.375 129.543 45.4573 163.625 87.5 163.625C129.543 163.625 163.625 129.543 163.625 87.5C163.625 45.4573 129.543 11.375 87.5 11.375C45.4573 11.375 11.375 45.4573 11.375 87.5Z" stroke="url(#paint0_linear_1948_20970)" stroke-width="21.5385" stroke-linecap="round" mask="url(#path-1-inside-1_1948_20970)"/>
</g>
<mask id="path-2-inside-2_1948_20970" fill="white">
<path d="M166.639 108.243C169.678 109.04 171.513 112.156 170.521 115.136C164.92 131.962 154.32 146.736 140.074 157.445C124.307 169.295 104.999 175.472 85.2822 174.972C65.565 174.472 46.5951 167.325 31.4495 154.691C16.3039 142.056 5.87124 124.675 1.8437 105.368C-2.18385 86.0596 0.430047 65.9572 9.26137 48.3214C18.0927 30.6855 32.6234 16.5506 50.4964 8.20952C68.3694 -0.131531 88.5362 -2.18943 107.726 2.36965C125.066 6.48934 140.688 15.7936 152.549 28.977C154.649 31.3121 154.213 34.9025 151.746 36.8472V36.8472C149.28 38.792 145.718 38.3522 143.595 36.0375C133.339 24.8578 119.941 16.9634 105.096 13.4366C88.4015 9.4702 70.8563 11.2606 55.3068 18.5173C39.7573 25.774 27.1156 38.0714 19.4324 53.4146C11.7491 68.7578 9.47505 86.2468 12.979 103.045C16.483 119.843 25.5594 134.964 38.7361 145.956C51.9127 156.948 68.4166 163.166 85.5705 163.601C102.724 164.035 119.522 158.662 133.239 148.352C145.436 139.184 154.56 126.592 159.491 112.244C160.512 109.274 163.601 107.447 166.639 108.243V108.243Z"/>
</mask>
<path d="M166.639 108.243C169.678 109.04 171.513 112.156 170.521 115.136C164.92 131.962 154.32 146.736 140.074 157.445C124.307 169.295 104.999 175.472 85.2822 174.972C65.565 174.472 46.5951 167.325 31.4495 154.691C16.3039 142.056 5.87124 124.675 1.8437 105.368C-2.18385 86.0596 0.430047 65.9572 9.26137 48.3214C18.0927 30.6855 32.6234 16.5506 50.4964 8.20952C68.3694 -0.131531 88.5362 -2.18943 107.726 2.36965C125.066 6.48934 140.688 15.7936 152.549 28.977C154.649 31.3121 154.213 34.9025 151.746 36.8472V36.8472C149.28 38.792 145.718 38.3522 143.595 36.0375C133.339 24.8578 119.941 16.9634 105.096 13.4366C88.4015 9.4702 70.8563 11.2606 55.3068 18.5173C39.7573 25.774 27.1156 38.0714 19.4324 53.4146C11.7491 68.7578 9.47505 86.2468 12.979 103.045C16.483 119.843 25.5594 134.964 38.7361 145.956C51.9127 156.948 68.4166 163.166 85.5705 163.601C102.724 164.035 119.522 158.662 133.239 148.352C145.436 139.184 154.56 126.592 159.491 112.244C160.512 109.274 163.601 107.447 166.639 108.243V108.243Z" stroke="url(#paint1_linear_1948_20970)" stroke-width="21.5385" stroke-linecap="round" mask="url(#path-2-inside-2_1948_20970)"/>
<path d="M69.5257 104.961L79.3303 76.6797H86.8694L96.635 104.961H90.346L88.2171 98.4375H77.9827L75.8538 104.961H69.5257ZM86.7327 93.8672L83.1975 83.0469H83.0022L79.4671 93.8672H86.7327ZM99.0382 83.75H104.819V104.961H99.0382V83.75ZM101.929 80.9766C101.356 80.9766 100.829 80.8464 100.347 80.5859C99.865 80.3125 99.4809 79.9544 99.1944 79.5117C98.908 79.056 98.7647 78.5677 98.7647 78.0469C98.7647 77.513 98.908 77.0182 99.1944 76.5625C99.4809 76.1068 99.865 75.7487 100.347 75.4883C100.829 75.2148 101.356 75.0781 101.929 75.0781C102.489 75.0781 103.01 75.2148 103.491 75.4883C103.973 75.7487 104.351 76.1068 104.624 76.5625C104.911 77.0182 105.054 77.513 105.054 78.0469C105.054 78.5677 104.911 79.056 104.624 79.5117C104.351 79.9544 103.973 80.3125 103.491 80.5859C103.01 80.8464 102.489 80.9766 101.929 80.9766Z" fill="#FF9500"/>
<defs>
<linearGradient id="paint0_linear_1948_20970" x1="151.667" y1="19.3229" x2="104.628" y2="179.033" gradientUnits="userSpaceOnUse">
<stop stop-color="#FC9401"/>
</linearGradient>
<linearGradient id="paint1_linear_1948_20970" x1="151.667" y1="19.3229" x2="104.628" y2="179.033" gradientUnits="userSpaceOnUse">
<stop stop-color="#FF9500"/>
<stop offset="0.968018" stop-color="#FF8E48"/>
</linearGradient>
</defs>
</svg>
