<svg width="175" height="175" viewBox="0 0 175 175" fill="none" xmlns="http://www.w3.org/2000/svg">
<g opacity="0.2">
<mask id="path-1-inside-1_1948_20976" fill="white">
<path d="M175 87.5C175 135.825 135.825 175 87.5 175C39.1751 175 0 135.825 0 87.5C0 39.1751 39.1751 0 87.5 0C135.825 0 175 39.1751 175 87.5ZM11.375 87.5C11.375 129.543 45.4573 163.625 87.5 163.625C129.543 163.625 163.625 129.543 163.625 87.5C163.625 45.4573 129.543 11.375 87.5 11.375C45.4573 11.375 11.375 45.4573 11.375 87.5Z"/>
</mask>
<path d="M175 87.5C175 135.825 135.825 175 87.5 175C39.1751 175 0 135.825 0 87.5C0 39.1751 39.1751 0 87.5 0C135.825 0 175 39.1751 175 87.5ZM11.375 87.5C11.375 129.543 45.4573 163.625 87.5 163.625C129.543 163.625 163.625 129.543 163.625 87.5C163.625 45.4573 129.543 11.375 87.5 11.375C45.4573 11.375 11.375 45.4573 11.375 87.5Z" stroke="url(#paint0_linear_1948_20976)" stroke-width="21.5385" stroke-linecap="round" mask="url(#path-1-inside-1_1948_20976)"/>
</g>
<mask id="path-2-inside-2_1948_20976" fill="white">
<path d="M167.731 71.4902C170.811 70.8755 173.826 72.8736 174.239 75.9874C176.839 95.5709 172.739 115.523 162.509 132.554C151.301 151.215 133.539 165.028 112.692 171.295C91.8455 177.562 69.4113 175.834 49.7707 166.448C30.13 157.061 14.6933 140.691 6.47518 120.534C-1.74297 100.376 -2.1524 77.8795 5.32683 57.4364C12.8061 36.9933 27.6369 20.0722 46.923 9.97739C66.2091 -0.117378 88.5655 -2.66082 109.626 2.84377C128.847 7.86752 145.73 19.2654 157.563 35.0843C159.445 37.5995 158.686 41.136 156.054 42.8503C153.422 44.5646 149.915 43.8052 148.009 41.3084C137.738 27.8526 123.232 18.157 106.75 13.8491C88.427 9.06009 68.9769 11.2729 52.198 20.0553C35.4191 28.8378 22.5163 43.5592 16.0093 61.3447C9.50241 79.1301 9.85862 98.7024 17.0084 116.239C24.1582 133.776 37.5881 148.018 54.6755 156.185C71.7629 164.351 91.2806 165.854 109.417 160.402C127.554 154.949 143.006 142.932 152.758 126.697C161.53 112.093 165.122 95.0192 163.057 78.2175C162.674 75.0998 164.65 72.1049 167.731 71.4902Z"/>
</mask>
<path d="M167.731 71.4902C170.811 70.8755 173.826 72.8736 174.239 75.9874C176.839 95.5709 172.739 115.523 162.509 132.554C151.301 151.215 133.539 165.028 112.692 171.295C91.8455 177.562 69.4113 175.834 49.7707 166.448C30.13 157.061 14.6933 140.691 6.47518 120.534C-1.74297 100.376 -2.1524 77.8795 5.32683 57.4364C12.8061 36.9933 27.6369 20.0722 46.923 9.97739C66.2091 -0.117378 88.5655 -2.66082 109.626 2.84377C128.847 7.86752 145.73 19.2654 157.563 35.0843C159.445 37.5995 158.686 41.136 156.054 42.8503C153.422 44.5646 149.915 43.8052 148.009 41.3084C137.738 27.8526 123.232 18.157 106.75 13.8491C88.427 9.06009 68.9769 11.2729 52.198 20.0553C35.4191 28.8378 22.5163 43.5592 16.0093 61.3447C9.50241 79.1301 9.85862 98.7024 17.0084 116.239C24.1582 133.776 37.5881 148.018 54.6755 156.185C71.7629 164.351 91.2806 165.854 109.417 160.402C127.554 154.949 143.006 142.932 152.758 126.697C161.53 112.093 165.122 95.0192 163.057 78.2175C162.674 75.0998 164.65 72.1049 167.731 71.4902Z" stroke="url(#paint1_linear_1948_20976)" stroke-width="21.5385" stroke-linecap="round" mask="url(#path-2-inside-2_1948_20976)"/>
<path d="M62.5233 76.6797H81.1561V81.5234H68.3827V88.3984H79.9452V93.2422H68.3827V104.961H62.5233V76.6797ZM84.1061 83.75H89.8874V104.961H84.1061V83.75ZM86.9968 80.9766C86.4238 80.9766 85.8965 80.8464 85.4147 80.5859C84.933 80.3125 84.5488 79.9544 84.2624 79.5117C83.9759 79.056 83.8327 78.5677 83.8327 78.0469C83.8327 77.513 83.9759 77.0182 84.2624 76.5625C84.5488 76.1068 84.933 75.7487 85.4147 75.4883C85.8965 75.2148 86.4238 75.0781 86.9968 75.0781C87.5567 75.0781 88.0775 75.2148 88.5593 75.4883C89.041 75.7487 89.4186 76.1068 89.6921 76.5625C89.9785 77.0182 90.1218 77.513 90.1218 78.0469C90.1218 78.5677 89.9785 79.056 89.6921 79.5117C89.4186 79.9544 89.041 80.3125 88.5593 80.5859C88.0775 80.8464 87.5567 80.9766 86.9968 80.9766ZM103.111 113.359C101.184 113.359 99.504 113.086 98.0718 112.539C96.6395 111.992 95.5132 111.217 94.6928 110.215C93.8725 109.212 93.4103 108.047 93.3061 106.719H99.0093C99.1655 107.539 99.6082 108.151 100.337 108.555C101.08 108.971 102.043 109.18 103.228 109.18C104.634 109.18 105.728 108.848 106.509 108.184C107.304 107.533 107.707 106.497 107.72 105.078V101.211H107.447C107.017 102.188 106.294 103.008 105.279 103.672C104.263 104.336 102.968 104.661 101.392 104.648C99.7514 104.661 98.2801 104.284 96.978 103.516C95.6759 102.734 94.6473 101.562 93.8921 100C93.1369 98.4245 92.7593 96.4974 92.7593 94.2188C92.7593 91.9141 93.1434 89.9544 93.9116 88.3398C94.6798 86.7253 95.715 85.5143 97.0171 84.707C98.3322 83.8867 99.7905 83.4766 101.392 83.4766C102.994 83.4766 104.283 83.8477 105.259 84.5898C106.236 85.332 106.965 86.237 107.447 87.3047H107.681V83.75H113.423V105.195C113.423 106.953 112.987 108.444 112.115 109.668C111.242 110.892 110.031 111.81 108.482 112.422C106.945 113.047 105.155 113.359 103.111 113.359ZM98.6968 94.2383C98.6968 96.1133 99.0809 97.5911 99.8491 98.6719C100.63 99.7526 101.744 100.299 103.189 100.312C104.634 100.299 105.748 99.7656 106.529 98.7109C107.323 97.6562 107.72 96.1849 107.72 94.2969C107.72 92.3828 107.323 90.8724 106.529 89.7656C105.735 88.6458 104.621 88.0859 103.189 88.0859C101.757 88.0859 100.65 88.6458 99.8686 89.7656C99.0874 90.8854 98.6968 92.3763 98.6968 94.2383Z" fill="#8A56F4"/>
<defs>
<linearGradient id="paint0_linear_1948_20976" x1="151.667" y1="19.3229" x2="104.628" y2="179.033" gradientUnits="userSpaceOnUse">
<stop offset="0.968018" stop-color="#8A56F4"/>
</linearGradient>
<linearGradient id="paint1_linear_1948_20976" x1="151.667" y1="19.3229" x2="104.628" y2="179.033" gradientUnits="userSpaceOnUse">
<stop stop-color="#8A56F4"/>
<stop offset="0.968018" stop-color="#6D8DDD"/>
</linearGradient>
</defs>
</svg>
