<svg width="175" height="175" viewBox="0 0 175 175" fill="none" xmlns="http://www.w3.org/2000/svg">
<g opacity="0.2">
<mask id="path-1-inside-1_1948_20982" fill="white">
<path d="M175 87.5C175 135.825 135.825 175 87.5 175C39.1751 175 0 135.825 0 87.5C0 39.1751 39.1751 0 87.5 0C135.825 0 175 39.1751 175 87.5ZM11.375 87.5C11.375 129.543 45.4573 163.625 87.5 163.625C129.543 163.625 163.625 129.543 163.625 87.5C163.625 45.4573 129.543 11.375 87.5 11.375C45.4573 11.375 11.375 45.4573 11.375 87.5Z"/>
</mask>
<path d="M175 87.5C175 135.825 135.825 175 87.5 175C39.1751 175 0 135.825 0 87.5C0 39.1751 39.1751 0 87.5 0C135.825 0 175 39.1751 175 87.5ZM11.375 87.5C11.375 129.543 45.4573 163.625 87.5 163.625C129.543 163.625 163.625 129.543 163.625 87.5C163.625 45.4573 129.543 11.375 87.5 11.375C45.4573 11.375 11.375 45.4573 11.375 87.5Z" stroke="url(#paint0_linear_1948_20982)" stroke-width="21.5385" stroke-linecap="round" mask="url(#path-1-inside-1_1948_20982)"/>
</g>
<mask id="path-2-inside-2_1948_20982" fill="white">
<path d="M168.756 97.0276C171.876 97.3934 174.127 100.224 173.559 103.313C170.262 121.261 161.422 137.781 148.214 150.509C133.636 164.555 114.64 173.112 94.4601 174.723C74.2806 176.333 54.1672 170.896 37.5467 159.34C20.9262 147.783 8.82719 130.82 3.31106 111.343C-2.20506 91.8651 -0.796963 71.0775 7.29544 52.5217C15.3878 33.966 29.6639 18.7902 47.691 9.5802C65.7182 0.370185 86.3811 -2.30424 106.159 2.01263C124.08 5.92412 140.269 15.3562 152.488 28.9094C154.591 31.2424 154.158 34.8332 151.694 36.7805V36.7805C149.229 38.7278 145.667 38.2917 143.541 35.9792C132.971 24.4811 119.082 16.4761 103.733 13.126C86.5265 9.37031 68.5498 11.6971 52.8662 19.7098C37.1826 27.7225 24.7624 40.9254 17.722 57.0689C10.6816 73.2124 9.45659 91.2976 14.2556 108.243C19.0547 125.189 29.5808 139.946 44.0406 150C58.5004 160.055 75.9992 164.785 93.5553 163.384C111.111 161.983 127.639 154.538 140.321 142.318C151.634 131.417 159.263 117.318 162.234 101.984C162.832 98.9008 165.636 96.6618 168.756 97.0276V97.0276Z"/>
</mask>
<path d="M168.756 97.0276C171.876 97.3934 174.127 100.224 173.559 103.313C170.262 121.261 161.422 137.781 148.214 150.509C133.636 164.555 114.64 173.112 94.4601 174.723C74.2806 176.333 54.1672 170.896 37.5467 159.34C20.9262 147.783 8.82719 130.82 3.31106 111.343C-2.20506 91.8651 -0.796963 71.0775 7.29544 52.5217C15.3878 33.966 29.6639 18.7902 47.691 9.5802C65.7182 0.370185 86.3811 -2.30424 106.159 2.01263C124.08 5.92412 140.269 15.3562 152.488 28.9094C154.591 31.2424 154.158 34.8332 151.694 36.7805V36.7805C149.229 38.7278 145.667 38.2917 143.541 35.9792C132.971 24.4811 119.082 16.4761 103.733 13.126C86.5265 9.37031 68.5498 11.6971 52.8662 19.7098C37.1826 27.7225 24.7624 40.9254 17.722 57.0689C10.6816 73.2124 9.45659 91.2976 14.2556 108.243C19.0547 125.189 29.5808 139.946 44.0406 150C58.5004 160.055 75.9992 164.785 93.5553 163.384C111.111 161.983 127.639 154.538 140.321 142.318C151.634 131.417 159.263 117.318 162.234 101.984C162.832 98.9008 165.636 96.6618 168.756 97.0276V97.0276Z" stroke="url(#paint1_linear_1948_20982)" stroke-width="21.5385" stroke-linecap="round" mask="url(#path-2-inside-2_1948_20982)"/>
<path d="M75.1507 76.6797L83.0022 95.8594H83.3147L91.1663 76.6797H98.4319V104.961H92.7288V86.4453H92.4944L85.1116 104.844H81.2053L73.8225 86.3672H73.5882V104.961H67.885V76.6797H75.1507ZM108.062 83.75V106.016C108.049 108.398 107.358 110.143 105.991 111.25C104.624 112.357 102.658 112.917 100.093 112.93L98.921 112.891V108.359L99.7022 108.398C100.614 108.385 101.271 108.177 101.675 107.773C102.079 107.383 102.28 106.771 102.28 105.938V83.75H108.062ZM105.132 80.9766C104.559 80.9766 104.032 80.8464 103.55 80.5859C103.068 80.3125 102.684 79.9544 102.398 79.5117C102.111 79.056 101.968 78.5677 101.968 78.0469C101.968 77.513 102.111 77.0182 102.398 76.5625C102.684 76.1068 103.068 75.7487 103.55 75.4883C104.032 75.2148 104.559 75.0781 105.132 75.0781C105.692 75.0781 106.213 75.2148 106.694 75.4883C107.176 75.7487 107.554 76.1068 107.827 76.5625C108.114 77.0182 108.257 77.513 108.257 78.0469C108.257 78.5677 108.114 79.056 107.827 79.5117C107.554 79.9544 107.176 80.3125 106.694 80.5859C106.213 80.8464 105.692 80.9766 105.132 80.9766Z" fill="#F48181"/>
<defs>
<linearGradient id="paint0_linear_1948_20982" x1="151.667" y1="19.3229" x2="104.628" y2="179.033" gradientUnits="userSpaceOnUse">
<stop offset="0.968018" stop-color="#F48181"/>
</linearGradient>
<linearGradient id="paint1_linear_1948_20982" x1="151.667" y1="19.3229" x2="104.628" y2="179.033" gradientUnits="userSpaceOnUse">
<stop stop-color="#F48181"/>
<stop offset="0.968018" stop-color="#FFAD72"/>
</linearGradient>
</defs>
</svg>
