<svg width="175" height="175" viewBox="0 0 175 175" fill="none" xmlns="http://www.w3.org/2000/svg">
<g opacity="0.2">
<mask id="path-1-inside-1_1948_20994" fill="white">
<path d="M175 87.5C175 135.825 135.825 175 87.5 175C39.1751 175 0 135.825 0 87.5C0 39.1751 39.1751 0 87.5 0C135.825 0 175 39.1751 175 87.5ZM11.375 87.5C11.375 129.543 45.4573 163.625 87.5 163.625C129.543 163.625 163.625 129.543 163.625 87.5C163.625 45.4573 129.543 11.375 87.5 11.375C45.4573 11.375 11.375 45.4573 11.375 87.5Z"/>
</mask>
<path d="M175 87.5C175 135.825 135.825 175 87.5 175C39.1751 175 0 135.825 0 87.5C0 39.1751 39.1751 0 87.5 0C135.825 0 175 39.1751 175 87.5ZM11.375 87.5C11.375 129.543 45.4573 163.625 87.5 163.625C129.543 163.625 163.625 129.543 163.625 87.5C163.625 45.4573 129.543 11.375 87.5 11.375C45.4573 11.375 11.375 45.4573 11.375 87.5Z" stroke="url(#paint0_linear_1948_20994)" stroke-width="21.5385" stroke-linecap="round" mask="url(#path-1-inside-1_1948_20994)"/>
</g>
<mask id="path-2-inside-2_1948_20994" fill="white">
<path d="M167.731 71.4902C170.811 70.8755 173.826 72.8737 174.239 75.9875C176.916 96.1513 172.488 116.688 161.611 134.017C149.724 152.956 131.037 166.625 109.387 172.218C87.7368 177.812 64.767 174.904 45.1937 164.093C25.6203 153.281 10.9288 135.386 4.13559 114.082C-2.65759 92.7785 -1.03689 69.6822 8.66492 49.5358C18.3667 29.3894 35.4134 13.7217 56.3048 5.74971C77.1962 -2.22227 100.347 -1.89356 121.004 6.66835C139.904 14.5021 155.403 28.6842 164.893 46.6756C166.358 49.4539 165.057 52.8286 162.189 54.1106V54.1106C159.321 55.3925 155.976 54.0946 154.484 51.3306C146.2 35.9876 132.862 23.8969 116.648 17.1765C98.6769 9.7276 78.5357 9.44162 60.3602 16.3772C42.1847 23.3129 27.3541 36.9437 18.9135 54.4711C10.4729 71.9985 9.0629 92.0923 14.973 110.627C20.883 129.161 33.6647 144.73 50.6935 154.136C67.7223 163.542 87.706 166.071 106.541 161.205C125.377 156.339 141.635 144.446 151.977 127.969C161.307 113.104 165.184 95.5238 163.057 78.2174C162.674 75.0997 164.65 72.1049 167.731 71.4902V71.4902Z"/>
</mask>
<path d="M167.731 71.4902C170.811 70.8755 173.826 72.8737 174.239 75.9875C176.916 96.1513 172.488 116.688 161.611 134.017C149.724 152.956 131.037 166.625 109.387 172.218C87.7368 177.812 64.767 174.904 45.1937 164.093C25.6203 153.281 10.9288 135.386 4.13559 114.082C-2.65759 92.7785 -1.03689 69.6822 8.66492 49.5358C18.3667 29.3894 35.4134 13.7217 56.3048 5.74971C77.1962 -2.22227 100.347 -1.89356 121.004 6.66835C139.904 14.5021 155.403 28.6842 164.893 46.6756C166.358 49.4539 165.057 52.8286 162.189 54.1106V54.1106C159.321 55.3925 155.976 54.0946 154.484 51.3306C146.2 35.9876 132.862 23.8969 116.648 17.1765C98.6769 9.7276 78.5357 9.44162 60.3602 16.3772C42.1847 23.3129 27.3541 36.9437 18.9135 54.4711C10.4729 71.9985 9.0629 92.0923 14.973 110.627C20.883 129.161 33.6647 144.73 50.6935 154.136C67.7223 163.542 87.706 166.071 106.541 161.205C125.377 156.339 141.635 144.446 151.977 127.969C161.307 113.104 165.184 95.5238 163.057 78.2174C162.674 75.0997 164.65 72.1049 167.731 71.4902V71.4902Z" stroke="url(#paint1_linear_1948_20994)" stroke-width="21.5385" stroke-linecap="round" mask="url(#path-2-inside-2_1948_20994)"/>
<path d="M35.6577 76.6797H41.5171V88.3984H53.7827V76.6797H59.6811V104.961H53.7827V93.2422H41.5171V104.961H35.6577V76.6797ZM62.553 76.6797H85.7171V81.5234H77.0452V104.961H71.2249V81.5234H62.553V76.6797ZM95.8155 76.6797L103.667 95.8594H103.98L111.831 76.6797H119.097V104.961H113.394V86.4453H113.159L105.776 104.844H101.87L94.4874 86.3672H94.253V104.961H88.5499V76.6797H95.8155ZM123.062 76.6797H128.922V100.117H141.109V104.961H123.062V76.6797Z" fill="#2040DF"/>
<defs>
<linearGradient id="paint0_linear_1948_20994" x1="151.667" y1="19.3229" x2="104.628" y2="179.033" gradientUnits="userSpaceOnUse">
<stop offset="0.968018" stop-color="#2040DF"/>
</linearGradient>
<linearGradient id="paint1_linear_1948_20994" x1="151.667" y1="19.3229" x2="104.628" y2="179.033" gradientUnits="userSpaceOnUse">
<stop stop-color="#2040DF"/>
<stop offset="0.968018" stop-color="#96A7FF"/>
</linearGradient>
</defs>
</svg>
