<svg width="175" height="175" viewBox="0 0 175 175" fill="none" xmlns="http://www.w3.org/2000/svg">
<g opacity="0.2">
<mask id="path-1-inside-1_1948_20988" fill="white">
<path d="M175 87.5C175 135.825 135.825 175 87.5 175C39.1751 175 0 135.825 0 87.5C0 39.1751 39.1751 0 87.5 0C135.825 0 175 39.1751 175 87.5ZM11.375 87.5C11.375 129.543 45.4573 163.625 87.5 163.625C129.543 163.625 163.625 129.543 163.625 87.5C163.625 45.4573 129.543 11.375 87.5 11.375C45.4573 11.375 11.375 45.4573 11.375 87.5Z"/>
</mask>
<path d="M175 87.5C175 135.825 135.825 175 87.5 175C39.1751 175 0 135.825 0 87.5C0 39.1751 39.1751 0 87.5 0C135.825 0 175 39.1751 175 87.5ZM11.375 87.5C11.375 129.543 45.4573 163.625 87.5 163.625C129.543 163.625 163.625 129.543 163.625 87.5C163.625 45.4573 129.543 11.375 87.5 11.375C45.4573 11.375 11.375 45.4573 11.375 87.5Z" stroke="url(#paint0_linear_1948_20988)" stroke-width="21.5385" stroke-linecap="round" mask="url(#path-1-inside-1_1948_20988)"/>
</g>
<mask id="path-2-inside-2_1948_20988" fill="white">
<path d="M37.8867 152.552C35.9818 155.05 32.399 155.544 30.0304 153.481C21.5046 146.055 14.4847 137.034 9.3764 126.908C3.41286 115.085 0.210292 102.063 0.0100097 88.8235C-0.190273 75.5836 2.61695 62.471 8.22016 50.4736C13.8234 38.4761 22.0764 27.9069 32.3575 19.5622C42.6385 11.2174 54.6793 5.31491 67.5728 2.29932C80.4662 -0.716264 93.8759 -0.766259 106.791 2.15311C119.707 5.07248 131.791 10.8851 142.134 19.1529C150.994 26.235 158.378 34.9603 163.891 44.8313C165.423 47.5736 164.202 50.9781 161.366 52.3285V52.3285C158.53 53.6789 155.155 52.4618 153.597 49.7345C148.841 41.4109 142.547 34.045 135.032 28.038C126.034 20.845 115.52 15.7881 104.284 13.2482C93.047 10.7084 81.3806 10.7519 70.1633 13.3754C58.946 15.999 48.4705 21.1342 39.526 28.3941C30.5815 35.654 23.4013 44.8492 18.5265 55.287C13.6517 65.7247 11.2095 77.1328 11.3837 88.6514C11.558 100.17 14.3442 111.499 19.5325 121.785C23.8653 130.374 29.7789 138.049 36.9463 144.415C39.2948 146.501 39.7916 150.055 37.8867 152.552V152.552Z"/>
</mask>
<path d="M37.8867 152.552C35.9818 155.05 32.399 155.544 30.0304 153.481C21.5046 146.055 14.4847 137.034 9.3764 126.908C3.41286 115.085 0.210292 102.063 0.0100097 88.8235C-0.190273 75.5836 2.61695 62.471 8.22016 50.4736C13.8234 38.4761 22.0764 27.9069 32.3575 19.5622C42.6385 11.2174 54.6793 5.31491 67.5728 2.29932C80.4662 -0.716264 93.8759 -0.766259 106.791 2.15311C119.707 5.07248 131.791 10.8851 142.134 19.1529C150.994 26.235 158.378 34.9603 163.891 44.8313C165.423 47.5736 164.202 50.9781 161.366 52.3285V52.3285C158.53 53.6789 155.155 52.4618 153.597 49.7345C148.841 41.4109 142.547 34.045 135.032 28.038C126.034 20.845 115.52 15.7881 104.284 13.2482C93.047 10.7084 81.3806 10.7519 70.1633 13.3754C58.946 15.999 48.4705 21.1342 39.526 28.3941C30.5815 35.654 23.4013 44.8492 18.5265 55.287C13.6517 65.7247 11.2095 77.1328 11.3837 88.6514C11.558 100.17 14.3442 111.499 19.5325 121.785C23.8653 130.374 29.7789 138.049 36.9463 144.415C39.2948 146.501 39.7916 150.055 37.8867 152.552V152.552Z" stroke="url(#paint1_linear_1948_20988)" stroke-width="21.5385" stroke-linecap="round" mask="url(#path-2-inside-2_1948_20988)"/>
<path d="M63.7249 104.961L73.5296 76.6797H81.0686L90.8343 104.961H84.5452L82.4163 98.4375H72.1819L70.053 104.961H63.7249ZM80.9319 93.8672L77.3968 83.0469H77.2014L73.6663 93.8672H80.9319ZM101.753 105.391C99.6046 105.391 97.7426 104.948 96.1671 104.062C94.5915 103.164 93.3806 101.895 92.5343 100.254C91.7009 98.6133 91.2843 96.6797 91.2843 94.4531C91.2843 92.2917 91.7009 90.3841 92.5343 88.7305C93.3806 87.0638 94.5785 85.7747 96.128 84.8633C97.6775 83.9388 99.4744 83.4766 101.519 83.4766C103.42 83.4766 105.119 83.8802 106.616 84.6875C108.127 85.4818 109.312 86.6862 110.171 88.3008C111.043 89.9154 111.48 91.888 111.48 94.2188V95.8594H96.9874C96.9874 96.9141 97.1827 97.832 97.5733 98.6133C97.977 99.3945 98.5434 100 99.2725 100.43C100.015 100.846 100.881 101.055 101.87 101.055C102.834 101.042 103.661 100.846 104.351 100.469C105.041 100.078 105.529 99.5573 105.816 98.9062H111.323C111.05 100.221 110.49 101.367 109.644 102.344C108.797 103.307 107.697 104.056 106.343 104.59C105.002 105.124 103.472 105.391 101.753 105.391ZM106.011 92.2266C106.011 91.3802 105.822 90.6185 105.444 89.9414C105.08 89.2643 104.566 88.7435 103.901 88.3789C103.237 88.0013 102.482 87.8125 101.636 87.8125C100.776 87.8125 99.9952 88.0078 99.2921 88.3984C98.602 88.7891 98.0551 89.3229 97.6514 90C97.2478 90.6771 97.0264 91.4193 96.9874 92.2266H106.011Z" fill="#F69FEE"/>
<defs>
<linearGradient id="paint0_linear_1948_20988" x1="151.667" y1="19.3229" x2="104.628" y2="179.033" gradientUnits="userSpaceOnUse">
<stop offset="0.968018" stop-color="#F69FEE"/>
</linearGradient>
<linearGradient id="paint1_linear_1948_20988" x1="151.667" y1="19.3229" x2="104.628" y2="179.033" gradientUnits="userSpaceOnUse">
<stop stop-color="#F69FEE"/>
<stop offset="0.968018" stop-color="#9297FF"/>
</linearGradient>
</defs>
</svg>
