<svg width="85" height="85" viewBox="0 0 85 85" fill="none" xmlns="http://www.w3.org/2000/svg">
<rect x="0.5" y="0.5" width="84" height="84" rx="42" fill="#152349" fill-opacity="0.54"/>
<rect x="0.5" y="0.5" width="84" height="84" rx="42" stroke="white"/>
<path d="M37.4903 39.9164C36.8329 39.4717 37.0511 34.9437 38.0905 34.3944C39.1299 33.8451 39.9425 32.5053 40.0728 30.0698C40.203 27.6343 42.6142 23.3621 43.7327 24.0611C44.8512 24.76 46.1791 27.194 46.2054 30.9504C46.2318 34.7068 47.9022 35.4552 47.9022 35.4552C47.9022 35.4552 47.9534 36.4898 49.0734 37.5259C50.1933 38.562 51.5519 40.1939 51.9692 40.2201C52.3864 40.2462 52.7012 40.4526 52.4904 41.3332C52.501 41.4567 52.5578 41.5717 52.6497 41.6557C52.7416 41.7396 52.8618 41.7863 52.9866 41.7866C53.4566 41.8127 53.3512 42.6018 53.3512 42.6018C53.3512 42.6018 53.0774 43.2107 54.395 43.962C54.395 43.962 54.761 44.2337 54.3306 44.8949C54.3323 45.0056 54.3664 45.1135 54.4288 45.2054C54.4912 45.2972 54.5791 45.3691 54.6819 45.4122C55.0348 45.5415 55.6862 49.3226 54.4082 49.8923C54.4082 49.8923 53.9265 50.3195 53.1945 47.6907C53.1945 47.6907 52.3161 45.5415 49.842 43.5347C49.842 43.5347 49.3867 43.4315 49.1905 41.618C49.1905 41.618 48.5288 40.9379 48.5288 40.5369" stroke="white" stroke-width="0.5" stroke-linecap="round" stroke-linejoin="round"/>
<path d="M44.1935 59.5981C43.8802 58.3819 40.9054 55.9987 41.7413 47.3495C42.5772 38.7004 43.9065 40.4863 42.9667 36.0324" stroke="white" stroke-width="0.5" stroke-linecap="round" stroke-linejoin="round"/>
<path d="M36.7883 39.0926C36.7883 39.0926 36.0563 45.8992 38.0386 52.062C40.0208 58.2248 43.0162 61.2299 43.186 62.2341C43.3558 63.2382 42.9444 62.7529 42.9444 62.7529C42.9444 62.7529 42.7351 62.4157 43.3836 62.0786" stroke="white" stroke-width="0.5" stroke-linecap="round" stroke-linejoin="round"/>
<path d="M56.6125 66.875C56.4046 65.5468 54.6302 64.2506 52.2117 63.5429C49.7932 62.8352 47.5884 63.9571 45.8111 61.9939C45.8111 61.9939 44.6107 60.5698 44.8025 56.1813C44.9942 51.7927 45.88 51.6765 45.88 51.6765C45.88 51.6765 48.2458 46.2897 48.5239 40.6325C48.8021 34.9754 47.6543 32.9309 47.6894 32.415C47.7246 31.8991 46.6808 24.1611 43.8977 23.0916C41.1146 22.022 37.8104 30.6479 37.8441 32.3801C37.8441 32.3801 37.0447 34.5598 36.8003 36.3167C35.5619 37.4957 33.9311 38.1833 32.2165 38.2494C32.2165 38.2494 31.4508 38.5255 31.8329 39.1474C32.215 39.7694 30.5461 39.7694 30.5461 39.7694C30.5461 39.7694 29.5374 39.9772 30.0249 40.5628C30.5124 41.1484 28.8069 40.6325 28.738 40.7706C28.6692 40.9086 28.3589 40.8156 28.5755 41.5495C28.5755 41.5742 28.5902 41.5989 28.599 41.6251C28.599 41.6251 24.7765 45.4715 26.403 46.5585C26.403 46.5585 30.5505 42.946 32.0247 42.9329C33.499 42.9198 36.6187 39.1445 36.6187 39.1445" stroke="white" stroke-width="0.5" stroke-linecap="round" stroke-linejoin="round"/>
<path d="M45.7113 62.5596C45.7113 62.5596 48.1635 67.2256 46.2749 69.4998C44.3863 71.774 43.0395 71.572 42.1172 72.781C41.1948 73.9901 41.2402 74.9738 41.2402 74.9738C41.2402 74.9738 40.719 75.2848 40.2725 73.7823C39.826 72.2797 39.6869 71.3119 41.0543 68.3954C42.4217 65.4789 43.1039 66.6516 43.3689 63.2498C43.6339 59.848 46.7712 67.0658 46.7712 67.0658C46.7712 67.0658 47.572 69.0348 51.7297 67.4625C51.7297 67.4625 54.3723 66.4453 55.7118 67.2213C55.7118 67.2213 56.8259 68.2051 56.6166 66.8754" stroke="white" stroke-width="0.5" stroke-linecap="round" stroke-linejoin="round"/>
<path d="M43.3902 6.11413C43.4548 10.6428 45.2159 12.5378 48 12.5" stroke="white" stroke-width="0.7" stroke-miterlimit="10" stroke-linecap="round"/>
<path d="M43.4592 17.9999L43.4558 17.1462L43.3932 6.116C43.4577 10.6446 41.2579 12.4622 38.4783 12.5" stroke="white" stroke-width="0.7" stroke-miterlimit="10" stroke-linecap="round"/>
</svg>
